# xmcd
#
# Track frame offsets:
#	150
#	17649
#	34820
#	56028
#	75473
#	93816
#	107840
#	125232
#	145123
#	166954
#	184951
#	202525
#	220158
#	240602
#
# Disc length: 3447 seconds
#
# Revision: 1
# Processed by: cddbd v1.5.2PL0 Copyright (c) Steve Scherf et al.
# Submitted via: audiograbber 1.83.01
#
DISCID=b80d750e
DTITLE=Ty Herndon - Got It Covered
DYEAR=2019
DGENRE=Country
TTITLE0=Ty Herndon - What Mattered Most (2019)
TTITLE1=Ty Herndon - I Need to Be Loved By You
TTITLE2=Ty Herndon - I Can't Make YOU Love Me
TTITLE3=Ty Herndon - Living In A Moment (2019)
TTITLE4=Ty Herndon - So Small
TTITLE5=Ty Herndon - I Want My Goodbye Back (2019)
TTITLE6=Ty Herndon Ft. Anita Cochran - A Man Holdin' On (To A Woman Letting Go)
TTITLE7=Ty Herndon - Walking In Memphis
TTITLE8=Ty Herndon Ft. Shelly Fairchild - Heart Half Empty
TTITLE9=Ty Herndon - I Have To Surrender
TTITLE10=Ty Herndon - What Mattered Most
TTITLE11=Ty Herndon - Living In A Moment (Damce Mix)
TTITLE12=Ty Herndon - Walking In Memphis
TTITLE13=Ty Herndon - That Kind Of Night
EXTD=
EXTT0=
EXTT1=
EXTT2=
EXTT3=
EXTT4=
EXTT5=
EXTT6=
EXTT7=
EXTT8=
EXTT9=
EXTT10=
EXTT11=
EXTT12=
EXTT13=
PLAYORDER=
